<?xml version="1.0" encoding="UTF-8"?><svg id="Capa_1" xmlns="http://www.w3.org/2000/svg" viewBox="0 0 800 624.66"><path d="m187.08,513.5c-6.48,0-11.74,5.26-11.74,11.74,0,14.24-11.59,25.83-25.83,25.83s-25.83-11.59-25.83-25.83,11.59-25.83,25.83-25.83c6.48,0,11.74-5.26,11.74-11.74s-5.26-11.74-11.74-11.74c-27.19,0-49.32,22.12-49.32,49.32s22.12,49.32,49.32,49.32,49.32-22.12,49.32-49.32c0-6.48-5.26-11.74-11.74-11.74Z"/><path d="m688.06,513.5c-6.48,0-11.74,5.26-11.74,11.74,0,14.24-11.59,25.83-25.83,25.83s-25.83-11.59-25.83-25.83,11.59-25.83,25.83-25.83c6.48,0,11.74-5.26,11.74-11.74s-5.26-11.74-11.74-11.74c-27.19,0-49.32,22.12-49.32,49.32s22.12,49.32,49.32,49.32,49.32-22.12,49.32-49.32c0-6.48-5.26-11.74-11.74-11.74Z"/><path d="m700.59,313.11h-25.05c-6.48,0-11.74,5.26-11.74,11.74s5.26,11.74,11.74,11.74h25.05c6.48,0,11.74-5.26,11.74-11.74s-5.26-11.74-11.74-11.74Z"/><path d="m512.72,413.31h-225.44c-6.48,0-11.74,5.26-11.74,11.74s5.26,11.74,11.74,11.74h225.44c6.48,0,11.74-5.26,11.74-11.74s-5.26-11.74-11.74-11.74Z"/><path d="m738.18,263.01h-157.3l-106.77-129.57c-.12-.15-.25-.29-.37-.43-9.7-10.67-22.83-17.56-36.95-19.63v-51.54c0-27.19-22.12-49.32-49.32-49.32h-50.88v-.78c0-6.48-5.26-11.74-11.74-11.74s-11.74,5.26-11.74,11.74v.78h-64.19v-.78c0-6.48-5.26-11.74-11.74-11.74s-11.74,5.26-11.74,11.74v.78h-50.88c-27.19,0-49.32,22.12-49.32,49.32v50.94c-20.64.6-39.46,11.22-50.59,28.72-.11.17-.21.34-.31.51L9.49,256.43c-6.21,9.87-9.49,21.23-9.49,32.9v135.73c0,23.93,14.12,45.92,35.96,56.03,3.13,1.45,6.75,1.45,9.88,0,2.86-1.33,5.04-3.76,6.1-6.71h12.21c-8.91,14.89-14.05,32.3-14.05,50.88,0,54.82,44.6,99.41,99.41,99.41s99.41-44.6,99.41-99.41c0-18.58-5.14-35.99-14.05-50.88h12.17c.3,1.12.59,2.25.85,3.38,1.21,5.35,5.97,9.14,11.45,9.14h281.32c5.48,0,10.24-3.79,11.45-9.14.26-1.14.55-2.26.85-3.38h12.17c-8.91,14.89-14.05,32.3-14.05,50.88,0,54.82,44.6,99.41,99.41,99.41s99.41-44.6,99.41-99.41c0-18.58-5.14-35.99-14.05-50.88h12.17c.3,1.12.59,2.25.85,3.38,1.21,5.35,5.97,9.14,11.45,9.14h2.85c20.31,0,36.83-16.52,36.83-36.83v-125.23c0-34.09-27.73-61.82-61.82-61.82Zm38.34,100.2h-13.31c-7.34,0-13.31-5.97-13.31-13.31s5.97-13.31,13.31-13.31h13.31v26.61Zm-299.71-189.56l73.64,89.37H181.67l38.39-71.47c7.1-11.13,19.19-17.77,32.42-17.77h222.67c.57,0,1.12-.05,1.66-.13Zm-89.34-137.64c14.24,0,25.83,11.59,25.83,25.83v50.88h-76.71V36.01h50.88Zm-74.36,0v76.71h-64.19V36.01h64.19Zm-138.55,0h50.88v76.71h-76.71v-50.88c0-14.24,11.59-25.83,25.83-25.83Zm-90.96,137.29c1.04.3,2.14.48,3.29.48h55.51l-38.41,71.5c-7.09,11.11-19.15,17.74-32.36,17.74h-38.88l50.85-89.71Zm65.91,427.87c-41.87,0-75.93-34.06-75.93-75.93s34.06-75.93,75.93-75.93,75.93,34.06,75.93,75.93-34.06,75.93-75.93,75.93Zm65.88-150.29c-17.55-15.57-40.62-25.05-65.88-25.05s-48.32,9.48-65.88,25.05h-22.12c17.55-31.29,51-51.66,88-51.66,23.35,0,45.26,7.75,63.36,22.4,10.04,8.13,18.39,18.11,24.64,29.26h-22.13Zm435.1,150.29c-41.87,0-75.93-34.06-75.93-75.93s34.06-75.93,75.93-75.93,75.93,34.06,75.93,75.93-34.06,75.93-75.93,75.93Zm65.88-150.29c-17.55-15.57-40.62-25.05-65.88-25.05s-48.32,9.48-65.88,25.05h-22.13c6.25-11.15,14.61-21.14,24.64-29.26,18.11-14.66,40.02-22.4,63.36-22.4s45.26,7.75,63.36,22.4c10.04,8.13,18.39,18.11,24.64,29.26h-22.13Zm52.54,11.23c-7.38-22.91-21.43-43.49-40.28-58.74-22.01-17.82-49.76-27.63-78.14-27.63s-56.13,9.81-78.14,27.63c-19.2,15.54-33.42,36.61-40.69,60.04h-263.32c-7.27-23.43-21.49-44.49-40.69-60.04-22.01-17.82-49.76-27.63-78.14-27.63-50.44,0-95.55,30.71-114.69,76.37-7.12-7.08-11.33-16.78-11.33-27.06v-88.45h601.96c6.48,0,11.74-5.26,11.74-11.74s-5.26-11.74-11.74-11.74H23.48v-23.79c0-.96.04-1.91.11-2.86.22.01.44.03.67.03h47.36c21.47,0,41.08-10.87,52.46-29.08.14-.22.26-.44.39-.67l47.9-89.16c1.96-3.64,1.85-8.04-.27-11.58s-5.95-5.72-10.08-5.72h-64.79c7.3-8.89,18.14-14.09,29.84-14.09h300.79c10.74,0,21.04,4.52,28.31,12.41l1.39,1.68h-205.09c-21.49,0-41.13,10.88-52.52,29.11-.14.22-.26.44-.39.67l-47.88,89.13c-1.96,3.64-1.85,8.04.27,11.58s5.94,5.72,10.08,5.72h576.15c17.05,0,31.53,11.19,36.5,26.61h-11.47c-20.29,0-36.79,16.5-36.79,36.79s16.5,36.79,36.79,36.79h13.31v63.37c0,5.31-3.11,9.9-7.61,12.05Z"/></svg>